<svg xmlns="http://www.w3.org/2000/svg" x="5px" y="5px"
width="30" height="30"
viewBox="0 0 172 172"
style=" fill:#000000;transform:rotate(90deg)"><g fill="none" fill-rule="nonzero" stroke="none" stroke-width="1" stroke-linecap="butt" stroke-linejoin="miter" stroke-miterlimit="10" stroke-dasharray="" stroke-dashoffset="0" font-family="none" font-weight="none" font-size="none" text-anchor="none" style="mix-blend-mode: normal"><path d="M0,172v-172h172v172z" fill="none"></path><g fill="#e67e22"><path d="M130.88125,17.2c-2.93403,0 -5.86843,1.12051 -8.10729,3.35938l-8.10729,8.10729l28.66667,28.66667l8.10729,-8.10729c4.47773,-4.47773 4.47773,-11.73685 0,-16.21458l-12.45208,-12.45208c-2.23887,-2.23887 -5.17326,-3.35937 -8.10729,-3.35937zM103.2,40.13333l-68.8,68.8l8.6,2.86667l2.86667,14.33333l14.33333,2.86667l2.86667,8.6l68.8,-68.8zM23.80677,132.74011l-6.39401,18.09583c-0.14224,0.34829 -0.21454,0.72118 -0.21276,1.09739c0,1.58322 1.28345,2.86667 2.86667,2.86667c0.35594,0.00175 0.7091,-0.0628 1.04141,-0.19036l18.15182,-6.41641z"></path></g></g></svg>